<svg version="1.0" xmlns="http://www.w3.org/2000/svg" width="346.667" height="346.667" viewBox="0 0 260 260"><path d="M0 130v130h260V0H0v130zm221-53c0 1.6-.4 3-1 3-.5 0-1 1.1-1 2.5 0 1.6-.6 2.5-1.5 2.5s-1.5.9-1.5 2.5-.6 2.5-1.5 2.5-1.5.9-1.5 2.5-.6 2.5-1.5 2.5c-1 0-1.5 1-1.5 3 0 1.8-.5 2.9-1.2 2.7-.7-.1-1.4 1.1-1.8 2.8-.3 1.6-1 2.8-1.5 2.5-.5-.3-1.2.8-1.5 2.5-.3 1.6-1 2.8-1.5 2.5-.6-.3-1.1.7-1.3 2.2-.2 1.6-.9 2.8-1.8 2.8-.8 0-1.4 1-1.4 2.5 0 1.6-.6 2.5-1.5 2.5s-1.5.9-1.5 2.5-.6 2.5-1.5 2.5-1.5.9-1.5 2.4c0 1.3-.7 2.6-1.5 3-.8.3-1.5 1.4-1.5 2.5 0 1-.7 2.1-1.5 2.5-.8.3-1.5 1.4-1.5 2.5 0 1-.7 2.1-1.5 2.5-.8.3-1.5 1.4-1.5 2.5 0 1-.7 2.1-1.5 2.5-.8.3-1.5 1.3-1.5 2.1 0 .9-.7 2.3-1.5 3.1-.8.9-1.5 2.4-1.5 3.4s-.7 2-1.5 2.4c-.8.3-1.5 1.4-1.5 2.5 0 1-.7 2.1-1.5 2.5-.8.3-1.5 1.3-1.5 2.1 0 .9-.7 2.3-1.5 3.1-.8.9-1.5 2.4-1.5 3.5 0 1 .7 1.9 1.5 1.9s1.5-.4 1.5-.9 1.4-1.2 3-1.6c1.7-.4 3-1.3 3-2.1s.7-1.4 1.5-1.4 1.5-.5 1.5-1c0-.6.7-1 1.5-1s1.5-.7 1.5-1.5.7-1.5 1.5-1.5 1.5-.7 1.5-1.5.7-1.5 1.5-1.5 1.5-.7 1.5-1.5.7-1.5 1.5-1.5 1.5-.7 1.5-1.5.7-1.5 1.5-1.5 1.5-.9 1.5-2 .7-2 1.5-2 1.5-.6 1.5-1.4c0-.8.7-1.6 1.5-2 .8-.3 1.5-1.4 1.5-2.5 0-2.8 3.5-3.6 6.4-1.4 1.4 1 2.6 2.3 2.6 2.9 0 .7-2 4.7-4.5 9-2.5 4.4-4.5 8.4-4.5 9.1 0 .6-1.9 2.9-4.2 5-2.3 2.1-5.9 5.5-7.9 7.6-2.1 2-4 3.7-4.3 3.7-.6 0-3.9 2.5-6.8 5.3-1.5 1.4-3.7 1.7-12.8 1.7-10 0-11-.2-11-1.8 0-1-.3-2.2-.7-2.6-.5-.4-1.3-2.4-1.9-4.4-1.4-5 .1-10.6 5.5-20.4 2.3-4.3 4-8.2 3.6-8.8-.3-.5.1-1.7.9-2.6.9-.8 1.6-2.2 1.6-3 0-.8.4-1.4 1-1.4.5 0 1.2-1.1 1.6-2.5.3-1.4 1-2.5 1.5-2.5s.9-1.1.9-2.5c0-1.6.6-2.5 1.5-2.5s1.5-.9 1.5-2.5.6-2.5 1.5-2.5c1 0 1.5-1 1.5-3 0-2.2.4-2.8 1.5-2.4 1.1.5 1.5-.1 1.5-2.5 0-2.1.5-3.1 1.5-3.1.9 0 1.5-.9 1.5-2.5s.6-2.5 1.5-2.5 1.5-.9 1.5-2.5c0-1.5.5-2.4 1.3-2.2.7.1 1.3-1 1.5-2.6.2-1.5.9-2.7 1.8-2.7s1.4-1.1 1.4-3c0-1.8.5-2.9 1.2-2.7.7.1 1.4-1.1 1.7-2.7.3-1.7 1.1-2.9 1.6-2.7.6.1 1.2-.6 1.4-1.6.2-1 .9-2.2 1.7-2.6.8-.4 1.4-1.9 1.4-3.2 0-1.5.5-2.4 1.3-2.3.7.2 1.3-.9 1.5-2.5l.3-2.7H221v3z"/></svg>